# xmcd
#
# Track frame offsets:
#	150
#	29490
#	47096
#	65247
#	82615
#	98712
#	123571
#	138885
#	160073
#	176342
#
# Disc length: 2737 seconds
#
# Revision: 1
# Processed by: cddbd v1.5.2PL0 Copyright (c) Steve Scherf et al.
# Submitted via: audiograbber 1.83.01
#
DISCID=7b0aaf0a
DTITLE=Mojo Perry - Echoing Endlessly Inside My Head...
DYEAR=2010
DGENRE=Blues
TTITLE0=Magic Butterfly - Taurusian
TTITLE1=Wishes
TTITLE2=Tears Of Paranoia
TTITLE3=Take A Wild Chance
TTITLE4=Foot Fetish
TTITLE5=My World
TTITLE6=I'm This I'm That
TTITLE7=Somethin's Gotta Give
TTITLE8=Ballad To Death
TTITLE9=Alone With Me
EXTD=
EXTT0=
EXTT1=
EXTT2=
EXTT3=
EXTT4=
EXTT5=
EXTT6=
EXTT7=
EXTT8=
EXTT9=
PLAYORDER=
